<?xml version="1.0" encoding="UTF-8" standalone="no"?>
<!DOCTYPE svg PUBLIC "-//W3C//DTD SVG 1.1//EN"
 "http://www.w3.org/Graphics/SVG/1.1/DTD/svg11.dtd">
<!-- Generated by graphviz version 2.46.1 (20210213.1702)
 -->
<!-- Title: mainmap Pages: 1 -->
<svg width="1343pt" height="213pt"
 viewBox="0.00 0.00 1342.74 212.99" xmlns="http://www.w3.org/2000/svg" xmlns:xlink="http://www.w3.org/1999/xlink">
<g id="graph0" class="graph" transform="scale(1 1) rotate(0) translate(4 208.99)">
<title>mainmap</title>
<polygon fill="white" stroke="transparent" points="-4,4 -4,-208.99 1338.74,-208.99 1338.74,4 -4,4"/>
<!-- Master 1 -->
<g id="node1" class="node">
<title>Master 1</title>
<ellipse fill="#fedcfa" stroke="black" cx="42.25" cy="-162.74" rx="42.49" ry="42.49"/>
<text text-anchor="middle" x="42.25" y="-159.04" font-family="Times,serif" font-size="14.00">Master 1</text>
</g>
<!-- Fillage 1 -->
<g id="node2" class="node">
<title>Fillage 1</title>
<ellipse fill="#fedcfa" stroke="black" cx="42.25" cy="-42.25" rx="42.49" ry="42.49"/>
<text text-anchor="middle" x="42.25" y="-38.55" font-family="Times,serif" font-size="14.00">Fillage 1</text>
</g>
<!-- Master 1&#45;&gt;Fillage 1 -->
<g id="edge1" class="edge">
<title>Master 1&#45;&gt;Fillage 1</title>
<path fill="none" stroke="black" d="M42.25,-120.3C42.25,-112.14 42.25,-103.48 42.25,-95.03"/>
<polygon fill="black" stroke="black" points="45.75,-94.87 42.25,-84.87 38.75,-94.87 45.75,-94.87"/>
</g>
<!-- 72 -->
<g id="node3" class="node">
<title>72</title>
<ellipse fill="#fedcfa" stroke="black" cx="122.25" cy="-162.74" rx="19.5" ry="19.5"/>
<text text-anchor="middle" x="122.25" y="-159.04" font-family="Times,serif" font-size="14.00">72</text>
</g>
<!-- 27 -->
<g id="node4" class="node">
<title>27</title>
<ellipse fill="#fedcfa" stroke="black" cx="179.25" cy="-162.74" rx="19.5" ry="19.5"/>
<text text-anchor="middle" x="179.25" y="-159.04" font-family="Times,serif" font-size="14.00">27</text>
</g>
<!-- 14 -->
<g id="node5" class="node">
<title>14</title>
<ellipse fill="#fedcfa" stroke="black" cx="236.25" cy="-162.74" rx="19.5" ry="19.5"/>
<text text-anchor="middle" x="236.25" y="-159.04" font-family="Times,serif" font-size="14.00">14</text>
</g>
<!-- 55 -->
<g id="node6" class="node">
<title>55</title>
<ellipse fill="#fedcfa" stroke="black" cx="293.25" cy="-162.74" rx="19.5" ry="19.5"/>
<text text-anchor="middle" x="293.25" y="-159.04" font-family="Times,serif" font-size="14.00">55</text>
</g>
<!-- 34 -->
<g id="node7" class="node">
<title>34</title>
<ellipse fill="#fedcfa" stroke="black" cx="350.25" cy="-162.74" rx="19.5" ry="19.5"/>
<text text-anchor="middle" x="350.25" y="-159.04" font-family="Times,serif" font-size="14.00">34</text>
</g>
<!-- 50 -->
<g id="node8" class="node">
<title>50</title>
<ellipse fill="#fedcfa" stroke="black" cx="407.25" cy="-162.74" rx="19.5" ry="19.5"/>
<text text-anchor="middle" x="407.25" y="-159.04" font-family="Times,serif" font-size="14.00">50</text>
</g>
<!-- 29 -->
<g id="node9" class="node">
<title>29</title>
<ellipse fill="#fedcfa" stroke="black" cx="464.25" cy="-162.74" rx="19.5" ry="19.5"/>
<text text-anchor="middle" x="464.25" y="-159.04" font-family="Times,serif" font-size="14.00">29</text>
</g>
<!-- 90 -->
<g id="node10" class="node">
<title>90</title>
<ellipse fill="#fedcfa" stroke="black" cx="521.25" cy="-162.74" rx="19.5" ry="19.5"/>
<text text-anchor="middle" x="521.25" y="-159.04" font-family="Times,serif" font-size="14.00">90</text>
</g>
<!-- 53 -->
<g id="node11" class="node">
<title>53</title>
<ellipse fill="#fedcfa" stroke="black" cx="578.25" cy="-162.74" rx="19.5" ry="19.5"/>
<text text-anchor="middle" x="578.25" y="-159.04" font-family="Times,serif" font-size="14.00">53</text>
</g>
<!-- 67 -->
<g id="node12" class="node">
<title>67</title>
<ellipse fill="#fedcfa" stroke="black" cx="635.25" cy="-162.74" rx="19.5" ry="19.5"/>
<text text-anchor="middle" x="635.25" y="-159.04" font-family="Times,serif" font-size="14.00">67</text>
</g>
<!-- 60 -->
<g id="node13" class="node">
<title>60</title>
<ellipse fill="#fedcfa" stroke="black" cx="692.25" cy="-162.74" rx="19.5" ry="19.5"/>
<text text-anchor="middle" x="692.25" y="-159.04" font-family="Times,serif" font-size="14.00">60</text>
</g>
<!-- 11 -->
<g id="node14" class="node">
<title>11</title>
<ellipse fill="#fedcfa" stroke="black" cx="749.25" cy="-162.74" rx="19.5" ry="19.5"/>
<text text-anchor="middle" x="749.25" y="-159.04" font-family="Times,serif" font-size="14.00">11</text>
</g>
<!-- 73 -->
<g id="node15" class="node">
<title>73</title>
<ellipse fill="#fedcfa" stroke="black" cx="806.25" cy="-162.74" rx="19.5" ry="19.5"/>
<text text-anchor="middle" x="806.25" y="-159.04" font-family="Times,serif" font-size="14.00">73</text>
</g>
<!-- 83 -->
<g id="node16" class="node">
<title>83</title>
<ellipse fill="#fedcfa" stroke="black" cx="863.25" cy="-162.74" rx="19.5" ry="19.5"/>
<text text-anchor="middle" x="863.25" y="-159.04" font-family="Times,serif" font-size="14.00">83</text>
</g>
<!-- 77 -->
<g id="node17" class="node">
<title>77</title>
<ellipse fill="#fedcfa" stroke="black" cx="920.25" cy="-162.74" rx="19.5" ry="19.5"/>
<text text-anchor="middle" x="920.25" y="-159.04" font-family="Times,serif" font-size="14.00">77</text>
</g>
<!-- 30 -->
<g id="node18" class="node">
<title>30</title>
<ellipse fill="#fedcfa" stroke="black" cx="977.25" cy="-162.74" rx="19.5" ry="19.5"/>
<text text-anchor="middle" x="977.25" y="-159.04" font-family="Times,serif" font-size="14.00">30</text>
</g>
<!-- 5 -->
<g id="node19" class="node">
<title>5</title>
<ellipse fill="#fedcfa" stroke="black" cx="1032.25" cy="-162.74" rx="18" ry="18"/>
<text text-anchor="middle" x="1032.25" y="-159.04" font-family="Times,serif" font-size="14.00">5</text>
</g>
<!-- 95 -->
<g id="node20" class="node">
<title>95</title>
<ellipse fill="#fedcfa" stroke="black" cx="1087.25" cy="-162.74" rx="19.5" ry="19.5"/>
<text text-anchor="middle" x="1087.25" y="-159.04" font-family="Times,serif" font-size="14.00">95</text>
</g>
<!-- 22 -->
<g id="node21" class="node">
<title>22</title>
<ellipse fill="#fedcfa" stroke="black" cx="1144.25" cy="-162.74" rx="19.5" ry="19.5"/>
<text text-anchor="middle" x="1144.25" y="-159.04" font-family="Times,serif" font-size="14.00">22</text>
</g>
<!-- 69 -->
<g id="node22" class="node">
<title>69</title>
<ellipse fill="#fedcfa" stroke="black" cx="1201.25" cy="-162.74" rx="19.5" ry="19.5"/>
<text text-anchor="middle" x="1201.25" y="-159.04" font-family="Times,serif" font-size="14.00">69</text>
</g>
<!-- 84 -->
<g id="node23" class="node">
<title>84</title>
<ellipse fill="#fedcfa" stroke="black" cx="1258.25" cy="-162.74" rx="19.5" ry="19.5"/>
<text text-anchor="middle" x="1258.25" y="-159.04" font-family="Times,serif" font-size="14.00">84</text>
</g>
<!-- 35 -->
<g id="node24" class="node">
<title>35</title>
<ellipse fill="#fedcfa" stroke="black" cx="1315.25" cy="-162.74" rx="19.5" ry="19.5"/>
<text text-anchor="middle" x="1315.25" y="-159.04" font-family="Times,serif" font-size="14.00">35</text>
</g>
</g>
</svg>
